<?xml version="1.0" standalone="no"?>
<!DOCTYPE svg PUBLIC "-//W3C//DTD SVG 1.0//EN" "http://www.w3.org/TR/2001/REC-SVG-20010904/DTD/svg10.dtd">
<svg xmlns="http://www.w3.org/2000/svg" xmlns:xlink="http://www.w3.org/1999/xlink" id="body_1" width="1056" height="408">

<defs>
    <clipPath  id="1">

    <path id=""  clip-rule="evenodd" transform="matrix(1 0 0 1 0 0)"  d="M0 306L0 0L0 0L792 0L792 0L792 306L792 306L0 306z" />    </clipPath>
    <clipPath  id="2">

    <path id=""  clip-rule="evenodd" transform="matrix(1 0 0 1 0 0)"  d="M0 306L792 306L792 306L792 0L792 0L0 0z" />    </clipPath>
</defs>

<g transform="matrix(1.3333 0 0 1.3333 0 0)">
	<g clip-path="url(#1)" >
		<g clip-path="url(#2)" >
    <path id=""  transform="matrix(1 0 0 -1 0 306)"  d="M380.684 226.6941L380.684 192.4021L380.684 192.4021L403.505 192.4021L403.505 192.4021L403.505 164.1421L403.505 164.1421L380.684 164.1421L380.684 164.1421L380.684 97.9611L380.684 97.9611L352.353 97.9611L352.353 97.9611L352.353 226.6941z" stroke="none" fill="#575F69" fill-rule="nonzero" />
    <path id=""  transform="matrix(1 0 0 -1 0 306)"  d="M409.472 66.4184L409.472 192.4014L409.472 192.4014L436.105 192.4014L436.105 192.4014L436.105 182.0114C 443.472 191.4574 452.537 195.6114 465.948 195.6114C 493.147 195.6114 512.222 174.2694 512.222 144.4274C 512.222 116.0934 492.391 94.7514 466.137 94.7514C 454.048 94.7514 445.361 98.3394 437.806 106.6514L437.806 106.6514L437.806 66.4184zM436.483 145.5584C 436.483 131.9614 446.871 121.1934 460.281 121.1934C 473.503 121.1934 483.891 131.5834 483.891 145.1804C 483.891 158.7804 473.692 169.1674 460.092 169.1674C 447.06 169.1674 436.483 158.5914 436.483 145.5584" stroke="none" fill="#06BAF1" fill-rule="nonzero" />
    <path id=""  transform="matrix(1 0 0 -1 0 306)"  d="M611.5677 192.4015L611.5677 97.9615L611.5677 97.9615L584.9347 97.9615L584.9347 97.9615L584.9347 108.1625C 580.4027 99.0955 570.7707 94.7515 555.6597 94.7515C 527.1397 94.7515 507.6847 115.1495 507.6847 145.1805C 507.6847 175.0225 527.7067 195.8005 556.2267 195.8005C 570.5817 195.8005 579.6467 191.6455 584.9347 182.3895L584.9347 182.3895L584.9347 192.4015zM536.0157 145.1805C 536.0157 131.5835 546.4057 121.1935 559.6277 121.1935C 573.4137 121.1935 583.2367 131.3945 583.2367 145.3695C 583.2367 158.9695 573.2247 169.1675 559.4387 169.1675C 546.2167 169.1675 536.0157 158.7805 536.0157 145.1805" stroke="none" fill="#06BAF1" fill-rule="nonzero" />
    <path id=""  transform="matrix(1 0 0 -1 0 306)"  d="M617.65 97.961L645.98303 97.961L645.98303 97.961L645.98303 226.694L645.98303 226.694L617.65 226.694z" stroke="none" fill="#06BAF1" fill-rule="nonzero" />
    <path id=""  transform="matrix(1 0 0 -1 0 306)"  d="M724.1025 165.958L696.5275 165.958C 695.9605 170.679 693.5045 172.947 688.4045 172.947C 683.1165 172.947 679.5285 170.491 679.5285 166.903C 679.5285 162.559 683.8725 159.347 694.0715 156.515C 713.5255 151.225 717.4915 149.148 722.7795 141.593C 725.6145 137.438 727.1255 132.339 727.1255 126.859C 727.1255 108.538 710.1275 94.752 687.8385 94.752C 666.6845 94.752 652.1405 106.651 650.0645 126.106L650.0645 126.106L678.2065 126.106C 678.9615 120.44 682.7385 117.416 688.9715 117.416C 694.2605 117.416 698.7925 120.626 698.7925 124.594C 698.7925 128.938 694.8265 132.15 687.8385 134.037L687.8385 134.037L671.2175 138.383C 659.6965 141.404 651.1955 152.358 651.1955 164.446C 651.1955 181.823 668.0075 195.612 689.3495 195.612C 709.1825 195.612 722.4045 184.279 724.1025 165.958" stroke="none" fill="#06BAF1" fill-rule="nonzero" />
    <path id=""  transform="matrix(1 0 0 -1 0 306)"  d="M67.2363 66.4184L67.2363 192.4014L67.2363 192.4014L93.8693 192.4014L93.8693 192.4014L93.8693 182.0114C 101.2363 191.4574 110.3013 195.6114 123.7123 195.6114C 150.9113 195.6114 169.9863 174.2694 169.9863 144.4274C 169.9863 116.0934 150.1553 94.7514 123.9013 94.7514C 111.8123 94.7514 103.1233 98.3394 95.5703 106.6514L95.5703 106.6514L95.5703 66.4184zM94.2473 145.5584C 94.2473 131.9614 104.6353 121.1934 118.0453 121.1934C 131.2673 121.1934 141.6553 131.5834 141.6553 145.1804C 141.6553 158.7804 131.4563 169.1674 117.8563 169.1674C 104.8243 169.1674 94.2473 158.5914 94.2473 145.5584" stroke="none" fill="#575F69" fill-rule="nonzero" />
    <path id=""  transform="matrix(1 0 0 -1 0 306)"  d="M258.934 97.9616L258.934 192.4016L258.934 192.4016L285.756 192.4016L285.756 192.4016L285.756 182.3896C 292.178 191.6456 299.733 195.6116 311.632 195.6116C 321.642 195.6116 330.898 192.0236 336.942 185.9796C 344.307 178.8016 346.385 172.3796 346.385 157.0796L346.385 157.0796L346.385 97.9616L346.385 97.9616L318.054 97.9616L318.054 97.9616L318.054 149.5266C 318.054 163.1236 313.52 169.1676 303.321 169.1676C 292.555 169.1676 287.267 162.9346 287.267 150.6596L287.267 150.6596L287.267 97.9616z" stroke="none" fill="#575F69" fill-rule="nonzero" />
    <path id=""  transform="matrix(1 0 0 -1 0 306)"  d="M248.7467 225.0542L238.7997 239.8562L238.7997 239.8562L228.8517 225.0532C 227.1647 222.5432 225.7987 219.8122 224.9957 216.8962C 224.6727 215.7212 224.4417 214.5332 224.4417 213.5372C 224.4417 205.6082 230.8697 199.1802 238.7997 199.1802C 246.7287 199.1802 253.1577 205.6082 253.1577 213.5372C 253.1577 214.5342 252.9267 215.7212 252.6027 216.8962C 251.8007 219.8132 250.4337 222.5442 248.7467 225.0542" stroke="none" fill="#06BAF1" fill-rule="nonzero" />
    <path id=""  transform="matrix(1 0 0 -1 0 306)"  d="M193.2643 179.1799L193.2643 192.4019L193.2643 192.4019L166.4423 192.4019L166.4423 192.4019L166.4423 97.9619L166.4423 97.9619L194.5873 97.9619L194.5873 97.9619L194.5873 146.8829C 194.5873 158.9719 200.6313 163.6929 216.8733 164.0709L216.8733 164.0709L218.6653 164.0709L218.6653 164.0709L218.6653 192.4019L218.6653 192.4019L216.1183 192.4019C 205.1633 192.4019 198.5523 188.4359 193.2643 179.1799" stroke="none" fill="#575F69" fill-rule="nonzero" />
    <path id=""  transform="matrix(1 0 0 -1 0 306)"  d="M224.633 97.962L252.966 97.962L252.966 97.962L252.966 192.40201L252.966 192.40201L224.633 192.40201z" stroke="none" fill="#575F69" fill-rule="nonzero" />
		</g>
	</g>
</g>
</svg>